<?xml version="1.0" encoding="UTF-8" standalone="no"?>
<!DOCTYPE svg PUBLIC "-//W3C//DTD SVG 1.1//EN" "http://www.w3.org/Graphics/SVG/1.1/DTD/svg11.dtd">
<svg width="100%" height="100%" viewBox="0 0 400 400" version="1.1" xmlns="http://www.w3.org/2000/svg" xmlns:xlink="http://www.w3.org/1999/xlink" xml:space="preserve" xmlns:serif="http://www.serif.com/" style="fill-rule:evenodd;clip-rule:evenodd;stroke-linejoin:round;stroke-miterlimit:2;">
    <g transform="matrix(1,0,0,1,8.9076,-47.9649)">
        <g transform="matrix(1,0,0,1,-50.6175,-13.1977)">
            <path d="M241.71,61.163C352.093,61.163 441.71,150.78 441.71,261.163C441.71,371.546 352.093,461.163 241.71,461.163C131.327,461.163 41.71,371.546 41.71,261.163C41.71,150.78 131.327,61.163 241.71,61.163ZM319.375,268.985C319.252,246.453 329.444,229.446 350.072,216.922C338.53,200.406 321.094,191.32 298.071,189.54C276.275,187.82 252.454,202.248 243.736,202.248C234.527,202.248 213.407,190.153 196.83,190.153C162.572,190.706 126.164,217.474 126.164,271.932C126.164,288.017 129.111,304.635 135.005,321.785C142.864,344.317 171.228,399.572 200.821,398.651C216.292,398.283 227.221,387.661 247.358,387.661C266.882,387.661 277.012,398.651 294.264,398.651C324.102,398.221 349.765,348 357.256,325.407C317.226,306.559 319.375,270.151 319.375,268.985ZM284.625,168.174C301.386,148.282 299.851,130.17 299.36,123.663C284.564,124.522 267.434,133.731 257.673,145.089C246.929,157.246 240.605,172.287 241.956,189.233C257.98,190.46 272.592,182.233 284.625,168.174Z"/>
        </g>
    </g>
</svg>
