<?xml version="1.0" encoding="UTF-8" standalone="no"?>
<!DOCTYPE svg PUBLIC "-//W3C//DTD SVG 1.1//EN" "http://www.w3.org/Graphics/SVG/1.1/DTD/svg11.dtd">
<svg width="100%" height="100%" viewBox="0 0 420 449" version="1.1" xmlns="http://www.w3.org/2000/svg" xmlns:xlink="http://www.w3.org/1999/xlink" xml:space="preserve" xmlns:serif="http://www.serif.com/" style="fill-rule:evenodd;clip-rule:evenodd;stroke-linejoin:round;stroke-miterlimit:2;">
    <g transform="matrix(1,0,0,1,-14,-32)">
        <path d="M286.17,419C276.295,419 268.17,427.125 268.17,437C268.17,446.875 276.295,455 286.17,455C296.045,455 304.17,446.875 304.17,437C304.17,427.125 296.045,419 286.17,419ZM398.09,271.4C388.59,256.78 358.72,218.95 310.83,197.69C304.763,194.983 298.637,192.56 292.45,190.42C296.305,180.995 298.289,170.909 298.289,160.725C298.289,127.019 276.56,96.91 244.57,86.29C232.16,82.19 221.24,80.29 212.16,80.52C211.56,78.52 210.27,69.52 221.56,45.52L198.66,32L193.18,39.56C184.49,51.62 176.26,63.11 168.84,74.45C166.116,73.807 163.343,73.388 160.55,73.2C119.02,70.75 121.55,70.87 119.49,70.87C68.88,70.87 68.74,122.99 68.74,116.75L66.38,153.43C64.77,180.43 86.13,203.64 114.01,205.28L122.94,205.82C105.96,215.497 90.385,227.455 76.65,241.36C14,304.66 14,374 14,429.77L14,463.41L37.32,433.61C40.446,446.733 45.344,459.369 51.88,471.17C57.66,481.3 66.75,480.62 71.52,478.5C75.73,476.63 81.52,471.58 75.27,458.39C67.28,441.61 61.962,423.683 59.51,405.26L106.33,345.43L81.67,419.54C139.9,377.14 239.05,357.78 317.92,380.95C352.12,391 385.37,381.64 402.66,357.11C403.38,356.11 403.86,354.95 404.51,353.89C406.31,363.261 407.248,372.778 407.31,382.32C407.31,405.62 403.62,435.25 392.43,463.96C389.91,470.42 394.19,478.46 401.03,479.7C408.45,481.27 416.36,476.6 419.4,468.55C429,443 434,414 434,382.32C434,343.74 421,304.86 398.09,271.4ZM142.37,128.58L126.67,127.65L125.28,149.44L138.41,150.22C137.828,156.736 137.935,163.296 138.73,169.79L116.35,168.45C109.811,168.179 104.579,162.725 104.579,156.181C104.579,156.007 104.583,155.833 104.59,155.66L107,119C108,106.83 120.87,107.73 120.26,107.68L149.37,109.41C146.587,115.627 144.248,122.033 142.37,128.58ZM290.79,300.76C286.418,304.148 280.081,303.534 276.44,299.37L266.76,287.88L232.34,314.88C228.958,317.539 224.017,317.059 221.21,313.8L205.43,295.16C202.966,291.955 203.57,287.291 206.77,284.82L241.34,257.64L227.2,240.9L210.11,254.35C206.891,256.86 202.212,256.418 199.52,253.35C196.828,250.282 195.8,248.93 195.72,248.82C193.262,245.607 193.88,240.942 197.09,238.48L214,225.19C214,225.19 195.49,203.19 195.4,203.05C194.109,201.377 193.408,199.322 193.408,197.208C193.408,194.242 194.788,191.438 197.14,189.63C201.478,186.202 207.832,186.811 211.44,191L292.53,287.32C293.823,288.996 294.524,291.054 294.524,293.171C294.524,296.14 293.143,298.948 290.79,300.76ZM187.44,419C177.565,419 169.44,427.125 169.44,437C169.44,446.875 177.565,455 187.44,455C197.315,455 205.44,446.875 205.44,437C205.44,427.125 197.315,419 187.44,419Z" style="fill-rule:nonzero;"/>
    </g>
</svg>
