<?xml version="1.0" encoding="UTF-8" standalone="no"?>
<svg
   width="100%"
   height="100%"
   viewBox="0 0 400 400"
   version="1.1"
   xml:space="preserve"
   style="fill-rule:evenodd;clip-rule:evenodd;stroke-linejoin:round;stroke-miterlimit:2;"
   id="svg1"
   xmlns="http://www.w3.org/2000/svg"
   xmlns:svg="http://www.w3.org/2000/svg"><defs
   id="defs1" />
    <g
   transform="matrix(1,0,0,1,-17.0199,-31.9208)"
   id="g1">
        <path
   d="m 217.02,31.921 c 110.383,0 200,89.617 200,200 0,110.383 -89.617,200 -200,200 -110.383,0 -200,-89.617 -200,-200 0,-110.383 89.617,-200 200,-200 z m -11.6246,82.38776 C 160.33765,89.350295 103.58603,105.55437 78.587927,150.59013 53.58982,195.6259 69.833534,252.39951 114.8693,277.39761 c 33.21731,18.41137 74.28303,14.83169 103.82197,-9.03923 l 36.59101,20.31067 -16.97364,30.57916 61.15831,33.94729 16.97366,-30.57916 30.57916,16.97364 33.94728,-61.15832 -128.30811,-71.22028 c 4.6354,-37.70219 -14.03264,-74.49532 -47.2615,-92.90149 z m -28.2894,50.96527 c 16.88845,9.37431 22.97978,30.66445 13.60551,47.55281 -9.37432,16.88845 -30.66434,22.97982 -47.5528,13.60551 -16.88837,-9.37427 -22.97984,-30.66435 -13.60552,-47.55281 9.37426,-16.88836 30.66445,-22.97977 47.55281,-13.60551 z"
   id="path1" />
    </g>
</svg>
